<?xml version="1.0" encoding="utf-8"?>
<!-- Generator: Adobe Illustrator 23.0.0, SVG Export Plug-In . SVG Version: 6.00 Build 0)  -->
<svg version="1.1" id="Layer_1" xmlns="http://www.w3.org/2000/svg" xmlns:xlink="http://www.w3.org/1999/xlink" x="0px" y="0px"
	 viewBox="0 0 4000 4000" style="enable-background:new 0 0 4000 4000;" xml:space="preserve">
<g>
	<linearGradient id="SVGID_1_" gradientUnits="userSpaceOnUse" x1="693.3333" y1="2000.0074" x2="3306.6667" y2="2000.0074">
		<stop  offset="0" style="stop-color:#06BCF4"/>
		<stop  offset="9.613109e-02" style="stop-color:#0FA4F2"/>
		<stop  offset="0.243" style="stop-color:#1987F0"/>
		<stop  offset="0.3992" style="stop-color:#2270EF"/>
		<stop  offset="0.5668" style="stop-color:#2760EE"/>
		<stop  offset="0.7539" style="stop-color:#2B56ED"/>
		<stop  offset="1" style="stop-color:#2C53ED"/>
	</linearGradient>
	<circle fill="url(#SVGID_1_)" cx="2000" cy="2000" r="1306.7"/>
	<g>
		<path fill="#FFFFFF" d="M1431.5,1828.6c2.1,148.9,105.7,276.7,188.9,379.5c21,26,51.9,64.1,70.9,92.7
			c-110.8,35.2-258.3,1.6-374.6-40.7v-805c0-112.3,105.4-194.8,214.4-167.8l565.4,140c10.2,48.1,30.4,96,53.5,141.5
			c-173.3-50-437.5-96.8-598.1,15.3C1472.8,1639.3,1430,1726.2,1431.5,1828.6z"/>
		<path fill="#FFFFFF" d="M2602.6,1551.3l-205.8-50.4c7,12.6,14.2,25.1,21.4,37.6c21.4,37.4,41.7,72.7,55.6,105.1
			c40.1,93.5,14.6,152.9-13.9,186.2c-76.3,89.2-200.9,41.4-260.8,18.5c-238.1-91.3-443.4-101.9-504.3-59.4
			c-6.2,4.3-13.9,9.7-13.5,36.2c0.9,62.6,74.3,153.2,133.2,226c82.5,101.9,167.9,207.3,135.4,326c-19,69.7-72.7,121.3-159.5,153.7
			c-61.9,23.1-130.2,34.6-204.5,34.6c-82.5,0-172.4-14.2-269.1-42.6c0,99.3,81.4,173,172.8,173c21.5,0,43.6-4.1,65.3-12.9
			l458.2-186.7c39-15.9,83.9-7.2,114.2,22.2l156.2,151.8c23.9,23.2,64,10.6,70.3-22.1l50.2-259.4c6.8-35.2,30.9-64.6,64.1-78.2
			l152.3-62.1c47.3-19.3,78.2-65.3,78.2-116.4v-458.3C2698.4,1615.5,2658.8,1565.1,2602.6,1551.3z M2057.4,2249.7
			c-65.8,17.7-119.2-21.4-119.2-87.3c0-65.9,53.4-133.6,119.2-151.2c65.9-17.7,119.3,21.4,119.3,87.3
			C2176.7,2164.4,2123.3,2232.1,2057.4,2249.7z M2335.2,2149.8c-51.8,13.8-93.7-16.9-93.7-68.6c0-51.7,41.9-105,93.7-118.8
			c51.7-13.9,93.7,16.8,93.7,68.6C2428.8,2082.7,2386.9,2135.9,2335.2,2149.8z M2563.5,2068.2c-40.5,10.8-73.3-13.2-73.3-53.6
			c0-40.4,32.8-82,73.3-92.9c40.5-10.8,73.3,13.2,73.3,53.7C2636.7,2015.7,2604,2057.3,2563.5,2068.2z"/>
	</g>
	<linearGradient id="SVGID_2_" gradientUnits="userSpaceOnUse" x1="2905.7375" y1="1058.1934" x2="1953.1309" y2="2051.4167">
		<stop  offset="0" style="stop-color:#FFFFFF;stop-opacity:0.5"/>
		<stop  offset="1" style="stop-color:#FFFFFF;stop-opacity:0.2"/>
	</linearGradient>
	<path opacity="0.88" fill="url(#SVGID_2_)" d="M3306.6,2000c0,376-158.9,715-413.1,953.4L1125.2,1029.5c231.5-209,538.3-336.2,874.8-336.2
		C2721.6,693.3,3306.6,1278.3,3306.6,2000z"/>
</g>
</svg>
