<?xml version="1.0" encoding="utf-8"?>
<!-- Generator: Adobe Illustrator 23.0.0, SVG Export Plug-In . SVG Version: 6.00 Build 0)  -->
<svg version="1.1" id="Layer_1" xmlns="http://www.w3.org/2000/svg" xmlns:xlink="http://www.w3.org/1999/xlink" x="0px" y="0px"
	 viewBox="0 0 4000 4000" style="enable-background:new 0 0 4000 4000;" xml:space="preserve">
<g>
	<linearGradient id="SVGID_1_" gradientUnits="userSpaceOnUse" x1="969.8492" y1="2000" x2="1703.2032" y2="2000">
		<stop  offset="0" style="stop-color:#06BCF4"/>
		<stop  offset="9.613109e-02" style="stop-color:#0FA4F2"/>
		<stop  offset="0.243" style="stop-color:#1987F0"/>
		<stop  offset="0.3992" style="stop-color:#2270EF"/>
		<stop  offset="0.5668" style="stop-color:#2760EE"/>
		<stop  offset="0.7539" style="stop-color:#2B56ED"/>
		<stop  offset="1" style="stop-color:#2C53ED"/>
	</linearGradient>
	<path fill="url(#SVGID_1_)" d="M1030.8,1914.9c1.1,79,56.1,146.9,100.2,201.4c11.2,13.8,27.5,34,37.6,49.2c-58.8,18.7-137.1,0.9-198.8-21.6
		v-427.2c0-59.6,55.9-103.4,113.8-89.1l300.1,74.3c5.4,25.5,16.1,51,28.4,75.1c-92-26.5-232.2-51.4-317.4,8.1
		C1052.7,1814.5,1030,1860.5,1030.8,1914.9z M1652.3,1767.7l-109.2-26.7c3.7,6.7,7.6,13.3,11.3,19.9c11.4,19.9,22.1,38.6,29.5,55.8
		c21.3,49.6,7.7,81.2-7.4,98.8c-40.5,47.3-106.6,22-138.4,9.8c-126.4-48.4-235.3-54.1-267.6-31.5c-3.3,2.3-7.4,5.2-7.2,19.2
		c0.5,33.2,39.4,81.3,70.7,120c43.8,54.1,89.1,110,71.9,173c-10.1,37-38.6,64.4-84.7,81.6c-32.9,12.2-69.1,18.4-108.6,18.4
		c-43.8,0-91.5-7.6-142.8-22.6c0,52.7,43.2,91.8,91.7,91.8c11.4,0,23.1-2.2,34.7-6.9l243.2-99.1c20.7-8.5,44.5-3.8,60.6,11.8
		l82.9,80.5c12.7,12.3,33.9,5.6,37.3-11.7l26.6-137.7c3.6-18.7,16.4-34.3,34-41.5l80.8-33c25.1-10.3,41.5-34.7,41.5-61.8v-243.2
		C1703.2,1801.8,1682.2,1775,1652.3,1767.7z M1363,2138.4c-34.9,9.4-63.3-11.4-63.3-46.3c0-35,28.4-70.9,63.3-80.2
		c35-9.4,63.3,11.4,63.3,46.3C1426.3,2093.1,1398,2129.1,1363,2138.4z M1510.4,2085.4c-27.5,7.3-49.7-9-49.7-36.4
		c0-27.5,22.3-55.7,49.7-63c27.5-7.4,49.7,8.9,49.7,36.4C1560.1,2049.8,1537.9,2078,1510.4,2085.4z M1631.6,2042.1
		c-21.5,5.8-38.9-7-38.9-28.5c0-21.5,17.4-43.5,38.9-49.3c21.5-5.8,38.9,7,38.9,28.5S1653.1,2036.3,1631.6,2042.1z"/>
	<g>
		<path fill="#2B2B2B" d="M2074.8,2035.3c0,34.7-11.5,61.8-34.5,81.1c-23,19.3-55.1,29-96.3,29c-17.2,0-33.5-1.9-48.8-5.8
			c-15.3-3.8-28.6-9.4-39.7-16.8v-82.2c13.1,8.3,28.2,15.3,45.2,20.9c17,5.6,32.4,8.4,46.1,8.4c11.6,0,20.3-2.4,26.3-7.3
			c5.9-4.8,8.9-11.7,8.9-20.7c0-4.2-0.9-8.2-2.8-11.9c-1.9-3.7-4.5-7.4-8-11c-3.4-3.7-12.7-11.8-27.7-24.3
			c-18.3-14.7-31.6-29.7-39.9-45.1c-8.3-15.3-12.4-32.2-12.4-50.5c0-20.5,5.1-38.9,15.4-55.3c10.2-16.4,24.7-29,43.4-38
			c18.7-9,39.6-13.5,62.8-13.5c37.4,0,71.1,8.4,100.9,25.1l-31.7,69.7c-26.8-13.8-49.5-20.7-68.3-20.7c-10,0-17.7,2.2-23.1,6.6
			c-5.4,4.4-8.1,10.8-8.1,19.3c0,7.7,2.6,14.8,7.9,21.5c5.2,6.7,15.2,15.5,29.9,26.6c18.5,13.6,32.2,27.9,41.1,43
			C2070.3,1998.6,2074.8,2015.9,2074.8,2035.3z"/>
		<path fill="#2B2B2B" d="M2204.9,2145.4c-33.2,0-59-9.3-77.5-27.8c-18.5-18.5-27.7-44.3-27.7-77.4c0-33,6.5-62.8,19.6-89.3
			c13.1-26.5,31-46.6,53.8-60.3c22.8-13.7,49.1-20.5,79-20.5c29.7,0,53.1,6.7,70.2,20.2c17.1,13.5,25.6,31.4,25.6,53.8
			c0,31.5-12.2,55.6-36.7,72.4c-24.5,16.8-59.9,25.2-106.2,25.2H2191v3.8c0,23.2,12.8,34.7,38.5,34.7c12.4,0,24.5-1.8,36.4-5.5
			c11.9-3.7,25.4-9.5,40.6-17.5v64.3c-17.5,8.9-33.9,15.1-49.1,18.7C2242.3,2143.6,2224.8,2145.4,2204.9,2145.4z M2242,1931.5
			c-9.5,0-18.5,5.4-26.8,16.3c-8.3,10.9-13.3,23.2-15,37h6.8c17.1,0,30.4-3.2,40.1-9.7c9.7-6.5,14.6-15.1,14.6-25.7
			c0-5-1.6-9.2-4.7-12.7C2253.9,1933.2,2248.9,1931.5,2242,1931.5z"/>
		<path fill="#2B2B2B" d="M2348.8,1874.7h91.3l10.1,131.9l0.5,14.6v20.4h1.9c5.8-20.7,9.7-33.6,11.7-38.9c2-5.2,20.7-47.9,56.1-128.1
			h97.7l-157.3,299.6c-15,29-32.5,49.8-52.4,62.7c-19.9,12.8-44.2,19.3-73,19.3c-14.4,0-26.4-1.3-36.2-4v-72.1
			c7.2,1.9,15.7,2.8,25.6,2.8c13.6,0,24.8-2.9,33.5-8.6c8.7-5.7,16.4-14.7,23.1-26.9l5.4-9.6L2348.8,1874.7z"/>
		<path fill="#2B2B2B" d="M2773.8,1870c8.8,0,15,0.6,18.8,1.9l-19.7,89.9c-8.4-3.4-18.1-5.2-28.9-5.2c-16.1,0-29,5.5-38.6,16.6
			c-9.6,11-16.9,27.9-21.9,50.6l-24.9,116.9h-90.9l56.1-266h72.5l-4.2,44.4h1.9c10.2-17.5,21.2-30.1,33.1-37.7
			C2738.9,1873.8,2754.5,1870,2773.8,1870z"/>
		<path fill="#2B2B2B" d="M2973.8,2140.7h-72.5l2.3-28.9h-1.9c-8.8,12.2-18.2,20.9-28.4,25.9c-10.2,5.1-21.7,7.6-34.5,7.6
			c-24.7,0-43.5-8.7-56.3-26.2c-12.8-17.4-19.3-42.5-19.3-75.2c0-28,5.7-56.6,17.1-85.7c11.4-29.1,25.9-51.1,43.3-66
			c17.4-14.9,36.7-22.3,57.9-22.3c13.1,0,24.7,2.9,34.7,8.8c10,5.9,18.9,15.5,26.8,28.8h1.9l12.4-32.9h72.8L2973.8,2140.7z
			 M2876.1,2072.4c7.8,0,15.3-4.6,22.4-13.7c7.1-9.2,12.8-21.4,17-36.7c4.2-15.3,6.3-30.4,6.3-45.1c0-10.2-1.6-18.3-4.7-24.5
			c-3.1-6.2-8-9.3-14.6-9.3c-11.9,0-22.7,9.9-32.3,29.7c-9.6,19.8-14.4,41.8-14.4,66.1C2856,2061.2,2862.7,2072.4,2876.1,2072.4z"/>
	</g>
</g>
</svg>
